<svg width="24" height="24" viewBox="0 0 24 24" xmlns="http://www.w3.org/2000/svg" fill="#fff">
  <path d="M20.625 0.758789C21.2463 0.758789 21.75 1.26247 21.75 1.88379V2.44629C21.75 3.06761 21.2463 3.57129 20.625 3.57129C20.0037 3.57129 19.5 3.06761 19.5 2.44629V1.88379C19.5 1.26247 20.0037 0.758789 20.625 0.758789Z" />
  <path d="M7.6875 6.38379C3.95958 6.38379 0.9375 9.40587 0.9375 13.1338V15.3838C0.9375 19.1117 3.95958 22.1338 7.6875 22.1338H10.9441C11.5654 22.1338 12.0691 21.6301 12.0691 21.0088C12.0691 20.3875 11.5654 19.8838 10.9441 19.8838H7.6875C5.20222 19.8838 3.1875 17.8691 3.1875 15.3838V13.1338C3.1875 10.6485 5.20222 8.63379 7.6875 8.63379H9.9375C12.4228 8.63379 14.4375 10.6485 14.4375 13.1338V21.0088C14.4375 21.6301 14.9412 22.1338 15.5625 22.1338C16.1838 22.1338 16.6875 21.6301 16.6875 21.0088V13.1338C16.6875 9.40587 13.6654 6.38379 9.9375 6.38379H7.6875Z" />
  <path d="M8.25 11.4463C7.00736 11.4463 6 12.4536 6 13.6963V14.8213C6 16.0639 7.00736 17.0713 8.25 17.0713H9.375C10.6176 17.0713 11.625 16.0639 11.625 14.8213V13.6963C11.625 12.4536 10.6176 11.4463 9.375 11.4463H8.25Z" />
  <path d="M21.75 7.50879C21.75 6.88747 21.2463 6.38379 20.625 6.38379C20.0037 6.38379 19.5 6.88747 19.5 7.50879V21.0088C19.5 21.6301 20.0037 22.1338 20.625 22.1338C21.2463 22.1338 21.75 21.6301 21.75 21.0088V7.50879Z" />
</svg>
