<?xml version="1.0" standalone="no"?>
<!DOCTYPE svg PUBLIC "-//W3C//DTD SVG 20010904//EN"
 "http://www.w3.org/TR/2001/REC-SVG-20010904/DTD/svg10.dtd">
<svg version="1.0" xmlns="http://www.w3.org/2000/svg"
 width="700.000000pt" height="700.000000pt" viewBox="0 0 700.000000 700.000000"
 preserveAspectRatio="xMidYMid meet">
<metadata>
Created by potrace 1.14, written by Peter Selinger 2001-2017
</metadata>
<g transform="translate(0.000000,700.000000) scale(0.100000,-0.100000)"
fill="#000000" stroke="none">
<path d="M1717 6993 c-1 -1 -49 -3 -107 -4 -188 -5 -416 -67 -626 -169 -356
-175 -632 -451 -805 -805 -40 -82 -108 -260 -125 -325 -28 -113 -33 -144 -42
-280 -7 -110 -9 -2686 -2 -2975 3 -122 16 -242 34 -325 3 -14 8 -35 10 -47 15
-72 60 -239 67 -248 5 -5 9 -18 9 -28 0 -54 171 -419 273 -583 174 -278 450
-562 737 -756 266 -180 524 -294 860 -378 187 -47 190 -48 410 -57 234 -10
2923 -10 3027 0 307 28 628 156 886 354 71 55 219 199 279 273 223 272 354
596 388 955 7 85 4 2964 -4 3075 -9 118 -17 174 -47 300 -34 144 -96 342 -135
427 -31 68 -128 261 -157 313 -25 45 -146 228 -164 249 -8 9 -47 57 -87 106
-184 227 -428 433 -696 587 -212 122 -376 190 -604 252 -240 65 -267 70 -446
82 -80 6 -2928 13 -2933 7z m3088 -1649 c57 -30 95 -87 102 -157 7 -67 1 -83
-81 -227 -32 -58 -67 -118 -76 -135 -120 -213 -383 -654 -410 -688 -86 -108
-268 -80 -335 53 -41 81 -26 143 72 306 24 39 43 74 43 77 0 4 49 90 90 157
70 114 116 209 104 214 -21 8 -1618 6 -1630 -2 -7 -4 22 -64 77 -161 49 -85
89 -156 89 -158 0 -2 11 -20 23 -41 74 -117 146 -260 147 -290 2 -159 -174
-273 -305 -199 -45 25 -80 74 -187 256 -40 68 -83 140 -94 160 -101 171 -283
489 -311 545 -30 60 -34 77 -30 121 6 61 28 113 62 145 51 48 50 48 1370 46
1237 -1 1240 -1 1280 -22z m-1216 -888 c53 -28 99 -84 110 -134 6 -30 9 -346
8 -851 l-1 -803 -27 -43 c-83 -131 -270 -132 -356 -1 l-30 44 -1 822 c0 607 3
828 11 848 38 87 125 144 207 138 27 -3 62 -12 79 -20z m-687 -1162 c90 -46
133 -165 93 -261 -8 -20 -40 -66 -69 -103 -55 -68 -113 -155 -133 -200 -55
-126 -71 -203 -68 -335 4 -198 79 -382 212 -522 152 -159 323 -234 548 -239
133 -4 217 13 332 66 175 81 279 180 364 346 74 145 92 211 93 349 0 61 -3
124 -6 140 -15 67 -18 79 -29 114 -25 73 -90 189 -152 266 -83 104 -97 132
-97 198 0 148 155 247 288 185 87 -41 241 -235 312 -393 74 -166 105 -317 104
-515 -1 -200 -32 -329 -126 -515 -149 -296 -397 -508 -718 -614 -52 -17 -126
-35 -163 -39 -90 -11 -358 -5 -427 9 -360 75 -680 329 -841 667 -82 173 -113
306 -113 492 -1 187 21 309 84 467 79 198 244 412 343 446 51 18 124 14 169
-9z"/>
</g>
</svg>
