<svg width="170" height="57" fill="none" xmlns="http://www.w3.org/2000/svg"><path fill-rule="evenodd" clip-rule="evenodd" d="M41.727 15.863c-7.94 2.294-13.876 5.522-19.761 8.94C2.665 36.014-1.95 46.625 14.612 51.4c25.745 7.387 79.731 2.271 118.702-12.486 8.632-3.264 20.431-7.263 28.071-13.954 7.108-6.223 5.484-10.92.543-14.349-5.039-3.522-13.529-5.732-20.117-6.85-28.798-4.86-83.03-1.759-127.987 16.313-.927.365-1.932.434-2.295.17-.364-.265.017-.756.875-1.102C58.682.54 114.614-2.771 144.254 2.23c8.199 1.397 19.251 4.436 23.532 9.497 2.903 3.466 2.691 7.86-3.461 13.281-8.111 7.12-20.628 11.443-29.79 14.91-40.232 15.238-96.06 20.574-122.604 12.932-17.827-5.124-12.98-16.508 7.776-28.564 6.323-3.69 12.852-7.165 21.471-9.654.95-.275 1.842-.22 1.937.134.164.336-.506.84-1.388 1.096z" fill="url(#paint0_linear_254_7217)"/><defs><linearGradient id="paint0_linear_254_7217" x1="4.708" y1="46.891" x2="165.835" y2="3.717" gradientUnits="userSpaceOnUse"><stop stop-color="#00A7A7"/><stop offset="1" stop-color="#33B9B9"/></linearGradient></defs></svg>