<?xml version="1.0" encoding="UTF-8" standalone="no"?>
<!DOCTYPE svg PUBLIC "-//W3C//DTD SVG 1.1//EN" "http://www.w3.org/Graphics/SVG/1.1/DTD/svg11.dtd">
<svg width="100%" height="100%" viewBox="0 0 358 86" version="1.1" xmlns="http://www.w3.org/2000/svg" xmlns:xlink="http://www.w3.org/1999/xlink" xml:space="preserve" xmlns:serif="http://www.serif.com/" style="fill-rule:evenodd;clip-rule:evenodd;stroke-linejoin:round;stroke-miterlimit:2;">
    <path d="M93.412,18.256C76.298,20.933 63.022,25.388 49.791,30.153C6.399,45.793 -6.511,62.38 26.134,72.277C76.889,87.608 189.894,86.377 275,67.567C293.849,63.409 319.466,58.473 337.364,48.633C354.013,39.483 352.161,31.66 343.063,25.461C333.792,19.097 316.983,14.408 303.748,11.737C245.89,0.099 133.018,-1.967 34.505,21.43C32.478,21.9 30.382,21.88 29.717,21.404C29.052,20.927 29.994,20.182 31.874,19.734C133.28,-4.348 249.724,-2.4 309.274,9.575C325.743,12.911 347.572,19.279 354.789,28.037C359.671,34.029 357.832,41.119 343.41,49.097C324.405,59.57 297.204,64.937 277.196,69.356C189.336,88.778 72.461,90.124 20.138,74.276C-15.002,63.646 -1.37,45.839 45.295,29.024C59.519,23.872 74.095,19.097 92.673,16.192C94.721,15.872 96.543,16.075 96.626,16.662C96.856,17.228 95.314,17.956 93.412,18.256Z" style="fill:#ff573c;"/>
</svg>
