<?xml version="1.0" encoding="UTF-8" standalone="no"?>
<!DOCTYPE svg PUBLIC "-//W3C//DTD SVG 1.1//EN" "http://www.w3.org/Graphics/SVG/1.1/DTD/svg11.dtd">
<svg width="100%" height="100%" viewBox="0 0 20 21" version="1.1" xmlns="http://www.w3.org/2000/svg" xmlns:xlink="http://www.w3.org/1999/xlink" xml:space="preserve" xmlns:serif="http://www.serif.com/" style="fill-rule:evenodd;clip-rule:evenodd;stroke-linejoin:round;stroke-miterlimit:2;">
    <g transform="matrix(1.25,0,0,1.25,-2.50047,-2.28581)">
        <path d="M15.001,18.229C16.105,18.229 17.001,17.333 17.001,16.229L17.001,7.803C17.001,7.305 16.815,6.824 16.479,6.456C16.479,6.456 13.22,2.881 13.22,2.881C12.841,2.466 12.305,2.229 11.742,2.229L5,2.229C3.895,2.229 3,3.124 3,4.229L3,16.229C3,17.333 3.895,18.229 5,18.229L15.001,18.229ZM15.001,17.229L5,17.229C4.448,17.229 4,16.781 4,16.229C4,16.229 4,4.229 4,4.229C4,3.676 4.448,3.229 5,3.229L11.742,3.229C12.024,3.229 12.292,3.347 12.481,3.555C12.481,3.555 15.74,7.13 15.74,7.13C15.908,7.314 16.001,7.554 16.001,7.803L16.001,16.229C16.001,16.781 15.553,17.229 15.001,17.229Z"/>
    </g>
    <g transform="matrix(1.25,0,0,1.25,-2.50047,-2.28581)">
        <path d="M11.013,3.045L11.013,5.726C11.013,7.107 12.132,8.226 13.513,8.226C13.513,8.226 16.126,8.226 16.126,8.226L16.126,7.226L13.513,7.226C12.684,7.226 12.013,6.555 12.013,5.726C12.013,5.726 12.013,3.045 12.013,3.045L11.013,3.045Z"/>
    </g>
    <g transform="matrix(1.25,0,0,1.25,-2.50047,-2.28581)">
        <path d="M6.513,11.272L13.5,11.272C13.776,11.272 14,11.048 14,10.772C14,10.496 13.776,10.272 13.5,10.272L6.513,10.272C6.237,10.272 6.013,10.496 6.013,10.772C6.013,11.048 6.237,11.272 6.513,11.272Z"/>
    </g>
    <g transform="matrix(1.25,0,0,1.25,-2.50047,-2.28581)">
        <path d="M6.513,8.226L8.841,8.226C9.117,8.226 9.341,8.002 9.341,7.726C9.341,7.45 9.117,7.226 8.841,7.226L6.513,7.226C6.237,7.226 6.013,7.45 6.013,7.726C6.013,8.002 6.237,8.226 6.513,8.226Z"/>
    </g>
    <g transform="matrix(1.25,0,0,1.25,-2.50047,-2.28581)">
        <path d="M6.513,14.24L13.5,14.24C13.776,14.24 14,14.016 14,13.74C14,13.464 13.776,13.24 13.5,13.24L6.513,13.24C6.237,13.24 6.013,13.464 6.013,13.74C6.013,14.016 6.237,14.24 6.513,14.24Z"/>
    </g>
</svg>
