<?xml version="1.0" encoding="UTF-8" standalone="no"?>
<!DOCTYPE svg PUBLIC "-//W3C//DTD SVG 1.1//EN" "http://www.w3.org/Graphics/SVG/1.1/DTD/svg11.dtd">
<svg width="100%" height="100%" viewBox="0 0 24 25" version="1.1" xmlns="http://www.w3.org/2000/svg" xmlns:xlink="http://www.w3.org/1999/xlink" xml:space="preserve" xmlns:serif="http://www.serif.com/" style="fill-rule:evenodd;clip-rule:evenodd;stroke-linejoin:round;stroke-miterlimit:2;">
    <g transform="matrix(1.45455,0,0,1.45455,-6.18182,-4.95455)">
        <path d="M19.25,14.5L19.25,17.833C19.25,18.076 19.153,18.31 18.982,18.481C18.981,18.481 18.981,18.481 18.981,18.482C18.81,18.653 18.576,18.75 18.333,18.75C18.333,18.75 6.667,18.75 6.667,18.75C6.424,18.75 6.19,18.653 6.019,18.482C6.018,18.481 6.018,18.481 6.018,18.481C5.847,18.31 5.75,18.076 5.75,17.833L5.75,14.5C5.75,14.086 5.414,13.75 5,13.75C4.586,13.75 4.25,14.086 4.25,14.5L4.25,17.833C4.25,18.474 4.505,19.089 4.958,19.542C5.411,19.995 6.026,20.25 6.667,20.25L18.333,20.25C18.974,20.25 19.589,19.995 20.042,19.542C20.495,19.089 20.75,18.474 20.75,17.833L20.75,14.5C20.75,14.086 20.414,13.75 20,13.75C19.586,13.75 19.25,14.086 19.25,14.5Z"/>
        <path d="M11.75,12.69L8.863,9.803C8.57,9.51 8.095,9.51 7.802,9.803C7.51,10.096 7.51,10.571 7.802,10.864L11.969,15.03C12.11,15.171 12.3,15.25 12.499,15.25L12.5,15.25C12.715,15.25 12.909,15.159 13.046,15.014L17.196,10.864C17.489,10.571 17.489,10.096 17.196,9.803C16.904,9.51 16.428,9.51 16.136,9.803L13.25,12.689L13.25,4.5C13.25,4.086 12.914,3.75 12.5,3.75C12.086,3.75 11.75,4.086 11.75,4.5L11.75,12.69Z"/>
    </g>
</svg>
