<?xml version="1.0" encoding="UTF-8" standalone="no"?>
<!DOCTYPE svg PUBLIC "-//W3C//DTD SVG 1.1//EN" "http://www.w3.org/Graphics/SVG/1.1/DTD/svg11.dtd">
<svg width="100%" height="100%" viewBox="0 0 20 21" version="1.1" xmlns="http://www.w3.org/2000/svg" xmlns:xlink="http://www.w3.org/1999/xlink" xml:space="preserve" xmlns:serif="http://www.serif.com/" style="fill-rule:evenodd;clip-rule:evenodd;stroke-linejoin:round;stroke-miterlimit:2;">
    <g transform="matrix(1.42857,0,0,1.42857,-4.28571,-4.11231)">
        <path d="M3.5,6.229C3.5,5.4 4.172,4.729 5,4.729L8.257,4.729C8.617,4.729 8.949,4.92 9.131,5.231C9.491,5.849 10.153,6.229 10.868,6.229L15,6.229C15.828,6.229 16.5,6.9 16.5,7.729L16.5,14.229C16.5,15.057 15.828,15.729 15,15.729L5,15.729C4.172,15.729 3.5,15.057 3.5,14.229L3.5,6.229Z" style="fill:rgb(223,234,253);fill-rule:nonzero;"/>
        <path d="M3,6.229L3,14.229C3,15.333 3.895,16.229 5,16.229L15,16.229C16.105,16.229 17,15.333 17,14.229L17,7.729C17,6.624 16.105,5.729 15,5.729C15,5.729 10.868,5.729 10.868,5.729C10.331,5.729 9.833,5.443 9.562,4.979L9.562,4.979C9.292,4.514 8.794,4.229 8.257,4.229L5,4.229C3.895,4.229 3,5.124 3,6.229ZM4,6.229C4,5.676 4.448,5.229 5,5.229L8.257,5.229C8.439,5.229 8.607,5.325 8.699,5.483C9.149,6.254 9.975,6.729 10.868,6.729L15,6.729C15.552,6.729 16,7.176 16,7.729C16,7.729 16,14.229 16,14.229C16,14.781 15.552,15.229 15,15.229C15,15.229 5,15.229 5,15.229C4.448,15.229 4,14.781 4,14.229C4,14.229 4,6.229 4,6.229Z" style="fill:rgb(5,5,5);"/>
        <path d="M3.5,12.629C3.5,11.8 4.172,11.129 5,11.129L8.3,11.129C8.985,11.129 9.623,10.775 9.987,10.194C10.167,9.904 10.484,9.729 10.826,9.729L15,9.729C15.828,9.729 16.5,10.4 16.5,11.229L16.5,14.229C16.5,15.057 15.828,15.729 15,15.729L5,15.729C4.172,15.729 3.5,15.057 3.5,14.229L3.5,12.629Z" style="fill:rgb(223,234,253);fill-rule:nonzero;"/>
        <path d="M3,12.629L3,14.229C3,15.333 3.895,16.229 5,16.229L15,16.229C16.105,16.229 17,15.333 17,14.229L17,11.229C17,10.124 16.105,9.229 15,9.229C15,9.229 10.826,9.229 10.826,9.229C10.312,9.229 9.835,9.493 9.563,9.929L9.563,9.929C9.29,10.364 8.813,10.629 8.3,10.629L5,10.629C3.895,10.629 3,11.524 3,12.629ZM4,12.629C4,12.076 4.448,11.629 5,11.629L8.3,11.629C9.158,11.629 9.956,11.186 10.411,10.459C10.5,10.316 10.657,10.229 10.826,10.229L15,10.229C15.552,10.229 16,10.676 16,11.229C16,11.229 16,14.229 16,14.229C16,14.781 15.552,15.229 15,15.229C15,15.229 5,15.229 5,15.229C4.448,15.229 4,14.781 4,14.229C4,14.229 4,12.629 4,12.629Z" style="fill:rgb(5,5,5);"/>
    </g>
</svg>
