<svg width="14" height="15" viewBox="0 0 14 15" fill="none" xmlns="http://www.w3.org/2000/svg">
<path d="M13.5405 1.59687C8.49282 7.32797 6.37696 12.2655 5.76225 13.911C5.6302 14.2648 5.29883 14.5052 4.92153 14.5214L3.59318 14.5795C3.15573 14.5985 2.7626 14.3138 2.64532 13.8918C2.09807 11.9203 1.05055 10.2881 0.460765 9.47409C0.22994 9.15535 0.294009 8.71132 0.605453 8.47106L1.66027 7.65668C1.98773 7.40379 2.46006 7.47444 2.69907 7.81258C3.42625 8.84124 4.25825 10.241 4.25825 10.241C6.58909 6.05194 9.55351 2.64386 11.1385 0.960812C11.4757 0.602563 11.9326 0.419434 12.3919 0.419434C12.7726 0.419434 13.155 0.545257 13.4724 0.801175C13.7172 0.99872 13.7486 1.36071 13.5405 1.59687Z" fill="#2570ED"/>
</svg>
