<?xml version="1.0" encoding="UTF-8" standalone="no"?>
<!DOCTYPE svg PUBLIC "-//W3C//DTD SVG 1.1//EN" "http://www.w3.org/Graphics/SVG/1.1/DTD/svg11.dtd">
<svg width="100%" height="100%" viewBox="0 0 20 21" version="1.1" xmlns="http://www.w3.org/2000/svg" xmlns:xlink="http://www.w3.org/1999/xlink" xml:space="preserve" xmlns:serif="http://www.serif.com/" >
    <path id="inn" d="M17.171,4.786C18.341,4.801 19.286,5.754 19.286,6.929L19.286,16.214C19.286,17.389 18.341,18.342 17.171,18.357L17.143,18.357L2.857,18.357C1.674,18.357 0.714,17.398 0.714,16.214L0.714,4.786C0.714,3.602 1.674,2.643 2.857,2.643L7.51,2.643C8.024,2.643 8.499,2.916 8.758,3.36C9.273,4.243 10.218,4.786 11.24,4.786L17.143,4.786L17.171,4.786Z"/>
    <g transform="matrix(1.42857,0,0,1.42857,-4.28571,-4.11231)">
        <path d="M3,9.829L3,14.229C3,15.333 3.895,16.229 5,16.229L15,16.229C16.105,16.229 17,15.333 17,14.229L17,7.729C17,6.624 16.105,5.729 15,5.729C15,5.729 11.137,5.729 11.137,5.729C10.449,5.729 9.827,6.143 9.562,6.779L9.562,6.779C9.298,7.414 8.676,7.829 7.988,7.829L5,7.829C3.895,7.829 3,8.724 3,9.829ZM4,9.829C4,9.276 4.448,8.829 5,8.829L7.988,8.829C9.08,8.829 10.065,8.172 10.486,7.163C10.595,6.9 10.852,6.729 11.137,6.729L15,6.729C15.552,6.729 16,7.176 16,7.729C16,7.729 16,14.229 16,14.229C16,14.781 15.552,15.229 15,15.229C15,15.229 5,15.229 5,15.229C4.448,15.229 4,14.781 4,14.229C4,14.229 4,9.829 4,9.829Z"/>
    </g>
    <g transform="matrix(1.42857,0,0,1.42857,-4.28571,-4.11231)">
        <path d="M3,6.229L3,14.229C3,15.333 3.895,16.229 5,16.229L15,16.229C16.105,16.229 17,15.333 17,14.229L17,7.729C17,6.624 16.105,5.729 15,5.729C15,5.729 10.868,5.729 10.868,5.729C10.331,5.729 9.833,5.443 9.562,4.979L9.562,4.979C9.292,4.514 8.794,4.229 8.257,4.229L5,4.229C3.895,4.229 3,5.124 3,6.229ZM4,6.229C4,5.676 4.448,5.229 5,5.229L8.257,5.229C8.439,5.229 8.607,5.325 8.699,5.483C9.149,6.254 9.975,6.729 10.868,6.729L15,6.729C15.552,6.729 16,7.176 16,7.729C16,7.729 16,14.229 16,14.229C16,14.781 15.552,15.229 15,15.229C15,15.229 5,15.229 5,15.229C4.448,15.229 4,14.781 4,14.229C4,14.229 4,6.229 4,6.229Z"/>
    </g>
</svg>
