<?xml version="1.0" encoding="UTF-8" standalone="no"?>
<!DOCTYPE svg PUBLIC "-//W3C//DTD SVG 1.1//EN" "http://www.w3.org/Graphics/SVG/1.1/DTD/svg11.dtd">
<svg width="100%" height="100%" viewBox="0 0 512 384" version="1.1" xmlns="http://www.w3.org/2000/svg" xmlns:xlink="http://www.w3.org/1999/xlink" xml:space="preserve" xmlns:serif="http://www.serif.com/" style="fill-rule:evenodd;clip-rule:evenodd;stroke-linejoin:round;stroke-miterlimit:2;">
    <g transform="matrix(0.095238,-1.4585e-16,-1.4585e-16,-0.095238,-0.015303,447.957)">
        <path d="M506,4683C269,4621 82,4432 21,4194C1,4115 0,4072 0,2689C0,1346 1,1261 19,1192C73,986 203,824 384,738C531,668 389,672 2694,672C4741,672 4786,672 4866,693C5106,754 5294,942 5355,1182C5375,1261 5376,1304 5376,2688C5376,4072 5375,4115 5355,4194C5294,4434 5106,4622 4866,4683C4786,4704 4741,4704 2684,4703C651,4703 580,4702 506,4683ZM4793,4233C4816,4222 4848,4200 4864,4183C4927,4115 4924,4159 4924,3169L4924,2263L4313,2873C3743,3440 3697,3484 3633,3513C3543,3553 3420,3555 3323,3518C3264,3495 3229,3463 2696,2932L2132,2369L1967,2531C1756,2737 1722,2756 1570,2756C1395,2756 1413,2769 895,2254L451,1812L451,2943C451,4182 448,4114 512,4183C528,4200 560,4222 583,4233C623,4251 702,4252 2688,4252C4674,4252 4753,4251 4793,4233Z" style="fill:rgb(201,201,201);fill-rule:nonzero;"/>
        <path d="M1016,4021C948,4005 854,3950 801,3896C582,3674 652,3307 940,3174C1057,3121 1238,3131 1344,3195C1440,3254 1508,3339 1544,3445C1576,3541 1570,3675 1530,3764C1438,3962 1224,4070 1016,4021Z" style="fill:rgb(201,201,201);fill-rule:nonzero;"/>
    </g>
</svg>
