<svg width="139" height="34" viewBox="0 0 139 34" fill="none" xmlns="http://www.w3.org/2000/svg">
<path d="M0 8C0 3.58172 3.58172 0 8 0H21C28.1797 0 34 5.8203 34 13V26C34 30.4183 30.4183 34 26 34H13C5.8203 34 0 28.1797 0 21V8Z" fill="#3D4148"/>
<path d="M22.8277 22.3183C22.8277 25.532 20.2135 28.1463 16.9998 28.1463C13.7861 28.1463 11.1718 25.532 11.1718 22.3183C11.1693 21.5404 11.3237 20.7699 11.626 20.053C11.9282 19.3361 12.3719 18.6876 12.9307 18.1462C13.125 17.9612 13.3845 17.8602 13.6529 17.8651C13.9212 17.8701 14.1768 17.9806 14.3642 18.1728C14.5516 18.3649 14.6557 18.6232 14.6539 18.8915C14.6522 19.1599 14.5448 19.4168 14.3549 19.6065C13.8157 20.1324 13.4455 20.8071 13.2917 21.5445C13.1378 22.2818 13.2073 23.0483 13.4912 23.7459C13.7751 24.4436 14.2605 25.0408 14.8855 25.4612C15.5105 25.8816 16.2466 26.1061 16.9998 26.1061C17.753 26.1061 18.4891 25.8816 19.1141 25.4612C19.739 25.0408 20.2245 24.4436 20.5084 23.7459C20.7923 23.0483 20.8617 22.2818 20.7079 21.5445C20.554 20.8071 20.1838 20.1324 19.6446 19.6065C19.4548 19.4168 19.3474 19.1599 19.3456 18.8915C19.3439 18.6232 19.448 18.3649 19.6354 18.1728C19.8228 17.9806 20.0784 17.8701 20.3467 17.8651C20.615 17.8602 20.8745 17.9612 21.0689 18.1462C21.6276 18.6876 22.0714 19.3361 22.3736 20.053C22.6758 20.7699 22.8303 21.5404 22.8277 22.3183ZM18.0198 20.7346V13.2662C18.0198 12.9957 17.9123 12.7362 17.721 12.5449C17.5297 12.3537 17.2703 12.2462 16.9998 12.2462C16.7293 12.2462 16.4698 12.3537 16.2785 12.5449C16.0872 12.7362 15.9798 12.9957 15.9798 13.2662V20.7346C15.9798 21.0052 16.0872 21.2646 16.2785 21.4559C16.4698 21.6472 16.7293 21.7546 16.9998 21.7546C17.2703 21.7546 17.5297 21.6472 17.721 21.4559C17.9123 21.2646 18.0198 21.0052 18.0198 20.7346ZM23.7294 8.40453C23.6398 8.24938 23.511 8.12055 23.3558 8.03102C23.2006 7.94149 23.0246 7.89442 22.8454 7.89453L11.1535 7.89453C10.9744 7.89442 10.7984 7.94146 10.6432 8.03094C10.4881 8.12042 10.3592 8.24917 10.2696 8.40425C10.18 8.55933 10.1328 8.73527 10.1328 8.91437C10.1328 9.09347 10.1799 9.26942 10.2695 9.42453L12.7593 13.7364C12.8946 13.9709 13.1174 14.142 13.3788 14.2121C13.6403 14.2823 13.9188 14.2457 14.1533 14.1104C14.3877 13.9752 14.5589 13.7523 14.629 13.4909C14.6991 13.2294 14.6626 12.9509 14.5273 12.7164L12.9198 9.93453H21.0798L19.4733 12.7164C19.4063 12.8325 19.3629 12.9606 19.3454 13.0935C19.328 13.2264 19.3369 13.3614 19.3716 13.4909C19.4063 13.6203 19.4662 13.7417 19.5478 13.848C19.6294 13.9543 19.7312 14.0434 19.8473 14.1104C19.9634 14.1774 20.0915 14.2208 20.2244 14.2383C20.3573 14.2557 20.4923 14.2468 20.6217 14.2121C20.7512 14.1774 20.8725 14.1175 20.9788 14.0359C21.0851 13.9543 21.1743 13.8525 21.2413 13.7364L23.7308 9.42487C23.8202 9.26965 23.8671 9.09363 23.8668 8.91452C23.8666 8.7354 23.8192 8.55951 23.7294 8.40453Z" fill="white"/>
<path d="M49.92 23.608C48.78 23.608 47.772 23.374 46.896 22.906C46.032 22.438 45.354 21.796 44.862 20.98C44.37 20.152 44.124 19.222 44.124 18.19V10.882H46.842V18.064C46.842 18.652 46.974 19.18 47.238 19.648C47.514 20.116 47.88 20.488 48.336 20.764C48.804 21.04 49.332 21.178 49.92 21.178C50.52 21.178 51.054 21.04 51.522 20.764C52.002 20.488 52.38 20.116 52.656 19.648C52.932 19.18 53.07 18.652 53.07 18.064V10.882H55.698V18.19C55.698 19.222 55.452 20.152 54.96 20.98C54.468 21.796 53.784 22.438 52.908 22.906C52.044 23.374 51.048 23.608 49.92 23.608ZM60.0703 23.5V10.9H66.3343C67.1743 10.9 67.9183 11.074 68.5663 11.422C69.2263 11.758 69.7363 12.232 70.0963 12.844C70.4683 13.444 70.6543 14.128 70.6543 14.896C70.6543 15.664 70.4623 16.36 70.0783 16.984C69.6943 17.608 69.1663 18.106 68.4943 18.478C67.8343 18.838 67.1023 19.018 66.2983 19.018H62.6803V23.5H60.0703ZM68.1163 23.5L64.4803 17.812L67.2883 17.362L71.2843 23.518L68.1163 23.5ZM62.6803 16.822H66.1003C66.4603 16.822 66.7783 16.744 67.0543 16.588C67.3303 16.432 67.5463 16.216 67.7023 15.94C67.8583 15.664 67.9363 15.352 67.9363 15.004C67.9363 14.656 67.8463 14.35 67.6663 14.086C67.4983 13.822 67.2583 13.618 66.9463 13.474C66.6463 13.318 66.2923 13.24 65.8843 13.24H62.6803V16.822ZM74.9414 23.5V10.9H77.6414V21.07H84.3554V23.5H74.9414ZM91.584 23.68C90.564 23.68 89.652 23.536 88.848 23.248C88.044 22.948 87.39 22.516 86.886 21.952L88.488 20.548C88.884 20.956 89.358 21.262 89.91 21.466C90.462 21.67 91.05 21.772 91.674 21.772C91.89 21.772 92.1 21.754 92.304 21.718C92.52 21.682 92.706 21.628 92.862 21.556C93.018 21.472 93.144 21.37 93.24 21.25C93.336 21.13 93.384 20.992 93.384 20.836C93.384 20.572 93.222 20.362 92.898 20.206C92.694 20.134 92.43 20.056 92.106 19.972C91.794 19.888 91.44 19.81 91.044 19.738C90.372 19.594 89.784 19.432 89.28 19.252C88.776 19.072 88.356 18.85 88.02 18.586C87.756 18.334 87.552 18.052 87.408 17.74C87.264 17.428 87.192 17.068 87.192 16.66C87.192 16.228 87.3 15.832 87.516 15.472C87.732 15.112 88.038 14.812 88.434 14.572C88.83 14.32 89.28 14.128 89.784 13.996C90.3 13.852 90.846 13.78 91.422 13.78C91.974 13.78 92.514 13.84 93.042 13.96C93.582 14.068 94.092 14.23 94.572 14.446C95.052 14.662 95.466 14.932 95.814 15.256L94.482 16.804C94.218 16.6 93.912 16.414 93.564 16.246C93.216 16.066 92.85 15.928 92.466 15.832C92.094 15.724 91.728 15.67 91.368 15.67C91.152 15.67 90.936 15.688 90.72 15.724C90.516 15.748 90.336 15.796 90.18 15.868C90.024 15.94 89.898 16.03 89.802 16.138C89.718 16.246 89.676 16.378 89.676 16.534C89.676 16.666 89.706 16.786 89.766 16.894C89.838 16.99 89.934 17.074 90.054 17.146C90.234 17.266 90.492 17.374 90.828 17.47C91.164 17.554 91.578 17.65 92.07 17.758C92.766 17.902 93.366 18.07 93.87 18.262C94.386 18.442 94.8 18.67 95.112 18.946C95.364 19.138 95.556 19.378 95.688 19.666C95.82 19.942 95.886 20.254 95.886 20.602C95.886 21.214 95.694 21.754 95.31 22.222C94.938 22.678 94.428 23.038 93.78 23.302C93.144 23.554 92.412 23.68 91.584 23.68ZM99.252 23.5V10.9H101.952V21.07H108.666V23.5H99.252ZM115.775 23.68C114.839 23.68 114.011 23.47 113.291 23.05C112.583 22.618 112.025 22.03 111.617 21.286C111.221 20.542 111.023 19.684 111.023 18.712C111.023 17.752 111.227 16.906 111.635 16.174C112.055 15.43 112.625 14.848 113.345 14.428C114.077 13.996 114.917 13.78 115.865 13.78C116.417 13.78 116.927 13.852 117.395 13.996C117.863 14.14 118.271 14.338 118.619 14.59C118.967 14.83 119.249 15.1 119.465 15.4C119.693 15.688 119.837 15.994 119.897 16.318L119.321 16.3V13.978H121.841V23.5H119.285V21.07L119.825 21.124C119.753 21.436 119.603 21.742 119.375 22.042C119.147 22.342 118.847 22.618 118.475 22.87C118.115 23.11 117.701 23.308 117.233 23.464C116.777 23.608 116.291 23.68 115.775 23.68ZM116.459 21.466C117.035 21.466 117.539 21.352 117.971 21.124C118.415 20.896 118.757 20.578 118.997 20.17C119.237 19.75 119.357 19.264 119.357 18.712C119.357 18.184 119.237 17.716 118.997 17.308C118.757 16.9 118.415 16.576 117.971 16.336C117.539 16.096 117.035 15.976 116.459 15.976C115.883 15.976 115.379 16.096 114.947 16.336C114.515 16.576 114.173 16.9 113.921 17.308C113.681 17.716 113.561 18.184 113.561 18.712C113.561 19.264 113.681 19.75 113.921 20.17C114.173 20.578 114.515 20.896 114.947 21.124C115.379 21.352 115.883 21.466 116.459 21.466ZM132.191 23.68C131.675 23.68 131.189 23.614 130.733 23.482C130.277 23.35 129.863 23.176 129.491 22.96C129.131 22.732 128.831 22.48 128.591 22.204C128.363 21.916 128.213 21.64 128.141 21.376L128.861 21.232L128.753 23.464H126.341V10.18H128.897V16.21L128.249 16.084C128.333 15.808 128.489 15.532 128.717 15.256C128.945 14.98 129.233 14.734 129.581 14.518C129.941 14.29 130.343 14.11 130.787 13.978C131.231 13.846 131.699 13.78 132.191 13.78C133.115 13.78 133.937 13.996 134.657 14.428C135.389 14.848 135.965 15.43 136.385 16.174C136.805 16.918 137.015 17.77 137.015 18.73C137.015 19.69 136.805 20.542 136.385 21.286C135.977 22.03 135.407 22.618 134.675 23.05C133.943 23.47 133.115 23.68 132.191 23.68ZM131.651 21.484C132.227 21.484 132.731 21.37 133.163 21.142C133.595 20.902 133.931 20.578 134.171 20.17C134.411 19.75 134.531 19.27 134.531 18.73C134.531 18.19 134.411 17.71 134.171 17.29C133.931 16.87 133.595 16.546 133.163 16.318C132.731 16.09 132.227 15.976 131.651 15.976C131.063 15.976 130.553 16.09 130.121 16.318C129.689 16.546 129.347 16.87 129.095 17.29C128.855 17.71 128.735 18.19 128.735 18.73C128.735 19.27 128.855 19.75 129.095 20.17C129.347 20.578 129.689 20.902 130.121 21.142C130.553 21.37 131.063 21.484 131.651 21.484Z" fill="#050505"/>
</svg>
