<svg viewBox="0 0 22 16" width="22" height="16" xmlns="http://www.w3.org/2000/svg" xml:space="preserve" style="fill-rule:evenodd;clip-rule:evenodd;stroke-linejoin:round;stroke-miterlimit:2"><path d="M20.83 1.172c.34.341.586.766.712 1.232C21.995 4.12 22 7.7 22 7.7s0 3.58-.458 5.295a2.76 2.76 0 0 1-1.945 1.945c-1.715.46-8.597.46-8.597.46s-6.88 0-8.595-.46A2.757 2.757 0 0 1 .46 12.995C0 11.28 0 7.7 0 7.7s0-3.58.46-5.296A2.76 2.76 0 0 1 2.405.452C4.118-.008 11-.008 11-.008s6.88 0 8.597.467c.466.126.89.372 1.232.713h.001ZM14.516 7.7 8.8 11V4.4l5.717 3.3h-.001Z"/></svg>
