<svg viewBox="0 0 46 46" fill="none" xmlns="http://www.w3.org/2000/svg">
<circle cx="23" cy="23" r="22.5"/>
<path d="M21.02 34.88C15.32 33.86 11 28.94 11 23C11 16.4 16.4 11 23 11C29.6 11 35 16.4 35 23C35 28.94 30.68 33.86 24.98 34.88L24.32 34.34H21.68L21.02 34.88Z" fill="url(#paint0_linear_254_10982)"/>
<path d="M27.68 26.3597L28.22 22.9997H25.04V20.6597C25.04 19.6997 25.4 18.9797 26.84 18.9797H28.4V15.9197C27.56 15.7997 26.6 15.6797 25.76 15.6797C23 15.6797 21.08 17.3597 21.08 20.3597V22.9997H18.08V26.3597H21.08V34.8197C21.74 34.9397 22.4 34.9997 23.06 34.9997C23.72 34.9997 24.38 34.9397 25.04 34.8197V26.3597H27.68Z" fill="white"/>
<defs>
<linearGradient id="paint0_linear_254_10982" x1="23.0006" y1="34.1654" x2="23.0006" y2="10.9956" gradientUnits="userSpaceOnUse">
<stop stop-color="#0062E0"/>
<stop offset="1" stop-color="#19AFFF"/>
</linearGradient>
</defs>
</svg>
