<svg viewBox="0 0 46 46" fill="none" xmlns="http://www.w3.org/2000/svg">
<circle cx="23" cy="23" r="22.5"/>
<g clip-path="url(#clip0_254_11002)">
<path fill-rule="evenodd" clip-rule="evenodd" d="M23 10.9993C20.1484 10.9964 17.3889 12.0091 15.2161 13.856C13.0433 15.7028 11.5992 18.2631 11.1426 21.0779C10.686 23.8928 11.2468 26.7782 12.7244 29.2172C14.202 31.6562 16.4999 33.4892 19.2063 34.3879C19.803 34.4984 20.024 34.1227 20.024 33.8059C20.024 33.4891 20.024 32.7672 20.024 31.7654C16.6869 32.502 15.9798 30.1595 15.9798 30.1595C15.7574 29.4335 15.285 28.8097 14.6464 28.3989C13.5636 27.6623 14.7348 27.6623 14.7348 27.6623C15.1144 27.7159 15.4768 27.8552 15.7946 28.0696C16.1124 28.284 16.3773 28.5679 16.5691 28.8998C16.7321 29.1954 16.9518 29.4558 17.2157 29.6662C17.4796 29.8766 17.7824 30.0329 18.1069 30.1259C18.4313 30.219 18.7709 30.2471 19.1062 30.2086C19.4415 30.1702 19.7659 30.0658 20.0608 29.9017C20.107 29.2957 20.3683 28.7261 20.7974 28.2958C18.1308 27.9938 15.3315 26.9624 15.3315 22.3658C15.3132 21.1746 15.7537 20.022 16.5617 19.1466C16.2011 18.111 16.2432 16.9777 16.6796 15.9717C16.6796 15.9717 17.6888 15.6475 19.9798 17.2019C21.947 16.6617 24.0235 16.6617 25.9908 17.2019C28.2818 15.6475 29.2836 15.9717 29.2836 15.9717C29.7246 16.9762 29.7693 18.1104 29.4089 19.1466C30.2169 20.022 30.6574 21.1746 30.6391 22.3658C30.6391 26.9772 27.8324 27.9864 25.1584 28.2589C25.4451 28.5472 25.6665 28.8937 25.8076 29.275C25.9487 29.6563 26.0061 30.0634 25.9761 30.4689C25.9761 32.0748 25.9761 33.3713 25.9761 33.7617C25.9761 34.1521 26.1897 34.4542 26.8011 34.3437C29.499 33.4366 31.7868 31.6006 33.2567 29.1632C34.7266 26.7259 35.2828 23.8457 34.8262 21.0363C34.3696 18.2269 32.9299 15.671 30.7639 13.8246C28.5978 11.9781 25.8463 10.9612 23 10.9551V10.9993Z" fill="#191717"/>
</g>
<defs>
<clipPath id="clip0_254_11002">
<rect width="24" height="23.4033" fill="white" transform="translate(11 11)"/>
</clipPath>
</defs>
</svg>
