<svg viewBox="0 0 46 46" fill="none" xmlns="http://www.w3.org/2000/svg">
<circle cx="23" cy="23" r="22.5"/>
<g clip-path="url(#clip0_254_10990)">
<path d="M34.9879 23.5844C34.9879 22.6526 34.9097 21.9727 34.7403 21.2676H23.7291V25.4731H30.1924C30.0622 26.5183 29.3585 28.0922 27.7948 29.1498L27.7728 29.2906L31.2544 31.8968L31.4956 31.9201C33.7108 29.9432 34.9879 27.0345 34.9879 23.5844Z" fill="#4285F4"/>
<path d="M23.729 34.6654C26.8955 34.6654 29.5538 33.658 31.4955 31.9204L27.7947 29.1502C26.8043 29.8175 25.4751 30.2834 23.729 30.2834C20.6277 30.2834 17.9954 28.3066 17.0571 25.5742L16.9196 25.5855L13.2994 28.2927L13.2521 28.4199C15.1806 32.1218 19.1421 34.6654 23.729 34.6654Z" fill="#34A853"/>
<path d="M17.0572 25.5729C16.8096 24.8678 16.6663 24.1123 16.6663 23.3316C16.6663 22.5509 16.8096 21.7954 17.0442 21.0903L17.0376 20.9401L13.3721 18.1895L13.2522 18.2446C12.4573 19.7808 12.0012 21.5059 12.0012 23.3316C12.0012 25.1574 12.4573 26.8824 13.2522 28.4186L17.0572 25.5729Z" fill="#FBBC05"/>
<path d="M23.729 16.3818C25.9312 16.3818 27.4167 17.301 28.2638 18.0692L31.5736 14.9464C29.5409 13.1207 26.8955 12 23.729 12C19.1421 12 15.1806 14.5435 13.2521 18.2454L17.0441 21.0911C17.9954 18.3588 20.6277 16.3818 23.729 16.3818Z" fill="#EB4335"/>
</g>
<defs>
<clipPath id="clip0_254_10990">
<rect width="23" height="22.743" fill="white" transform="translate(12 12)"/>
</clipPath>
</defs>
</svg>
