<svg viewBox="0 0 46 46" fill="none" xmlns="http://www.w3.org/2000/svg">
<circle cx="23" cy="23" r="22.5"/>
<g clip-path="url(#clip0_254_11006)">
<path d="M30.2905 30.2897H27.2846V25.5804C27.2846 24.4583 27.2645 23.0124 25.7204 23.0124C24.1546 23.0124 23.9147 24.236 23.9147 25.4991V30.2889H20.908V20.6062H23.7948V21.9296H23.8325C24.1218 21.4352 24.5398 21.0286 25.042 20.7531C25.5442 20.4777 26.1117 20.3437 26.6841 20.3655C29.7311 20.3655 30.2905 22.3699 30.2905 24.9783V30.2897ZM17.5155 19.2827C17.1703 19.2827 16.8329 19.1803 16.5459 18.9886C16.2589 18.7968 16.0351 18.5242 15.903 18.2053C15.7709 17.8864 15.7364 17.5354 15.8037 17.1969C15.8711 16.8583 16.0373 16.5473 16.2814 16.3033C16.5255 16.0592 16.8365 15.8929 17.175 15.8256C17.5136 15.7583 17.8645 15.7928 18.1834 15.9249C18.5023 16.057 18.7749 16.2807 18.9667 16.5677C19.1585 16.8548 19.2608 17.1922 19.2608 17.5374C19.2584 17.9994 19.0739 18.4418 18.7473 18.7685C18.4207 19.0953 17.9775 19.2801 17.5155 19.2827ZM19.0184 30.2897H16.0084V20.6062H19.0184V30.2897ZM31.79 13.0001H14.4979C14.1059 12.9976 13.7288 13.1498 13.4484 13.4236C13.168 13.6974 13.0068 14.0708 13 14.4627V31.8237C13.0066 32.2158 13.1676 32.5895 13.448 32.8636C13.7285 33.1378 14.1057 33.2903 14.4979 33.288H31.79C32.1824 33.2912 32.5602 33.1396 32.8415 32.8661C33.1228 32.5926 33.285 32.2193 33.293 31.827V14.4619C33.2859 14.0692 33.124 13.6952 32.8426 13.4212C32.5611 13.1473 32.1828 12.9965 31.79 13.0001Z" fill="#0A66C2"/>
</g>
<defs>
<clipPath id="clip0_254_11006">
<rect width="24" height="20.4364" fill="white" transform="translate(11 13)"/>
</clipPath>
</defs>
</svg>
