<svg viewBox="0 0 46 46" fill="none" xmlns="http://www.w3.org/2000/svg">
<circle cx="23" cy="23" r="22.5"/>
<g clip-path="url(#clip0_254_11010)">
<path d="M18.5405 33.2147L18.9368 30.6846H18.0451H13.8079L16.7572 11.9828C16.7603 11.9303 16.7789 11.88 16.8105 11.838C16.834 11.8132 16.8624 11.7936 16.8939 11.7805C16.9254 11.7674 16.9593 11.761 16.9934 11.7618H24.1419C26.5196 11.7618 28.1505 12.2724 29.004 13.286C29.3749 13.7034 29.6367 14.206 29.7661 14.7492C29.8937 15.4138 29.8937 16.0966 29.7661 16.7611V16.8221V17.3403L30.17 17.5613C30.4766 17.7198 30.7527 17.9314 30.9855 18.1862C31.3411 18.6031 31.5687 19.1139 31.6409 19.6571C31.7323 20.3735 31.7013 21.1002 31.5494 21.8062C31.3978 22.6592 31.0987 23.4794 30.6654 24.2296C30.3154 24.8296 29.8427 25.349 29.2784 25.7538C28.7098 26.147 28.0746 26.4336 27.4036 26.5998C26.6377 26.7849 25.8519 26.8745 25.064 26.8665H24.5077C24.1081 26.8682 23.722 27.0113 23.4179 27.2704C23.1432 27.5261 22.9633 27.8672 22.9073 28.2383L22.8615 28.4669L22.1452 32.9328V33.0928C22.1447 33.1116 22.1404 33.13 22.1326 33.1471C22.1247 33.1641 22.1134 33.1794 22.0994 33.1919C22.0746 33.1995 22.0481 33.1995 22.0232 33.1919L18.5405 33.2147Z" fill="#253B80"/>
<path d="M30.5662 16.8457C30.5662 16.9829 30.5205 17.1201 30.49 17.2649C29.5526 22.1042 26.3214 23.7731 22.2061 23.7731H20.1103C19.8659 23.7704 19.6288 23.856 19.4425 24.0142C19.2562 24.1725 19.1334 24.3927 19.0967 24.6343L18.0298 31.4474L17.7249 33.3755C17.7116 33.4522 17.7152 33.5309 17.7355 33.606C17.7557 33.6811 17.7922 33.7509 17.8423 33.8104C17.8924 33.87 17.955 33.9179 18.0255 33.9507C18.0961 33.9835 18.173 34.0005 18.2508 34.0004H21.9698C22.1842 34.0009 22.3915 33.9241 22.5538 33.7841C22.7162 33.6442 22.8227 33.4504 22.8538 33.2383L22.8919 33.0478L23.5931 28.6048L23.6388 28.3609C23.6699 28.1489 23.7764 27.9551 23.9388 27.8152C24.1011 27.6752 24.3085 27.5984 24.5228 27.5989H25.0791C28.6839 27.5989 31.5036 26.1356 32.3267 21.906C32.6696 20.1379 32.4943 18.6595 31.5646 17.623C31.2802 17.3071 30.9422 17.0439 30.5662 16.8457Z" fill="#179BD7"/>
<path d="M29.5756 16.4492L29.1336 16.3349L28.6611 16.2434C28.0482 16.151 27.4289 16.1077 26.8092 16.1139H21.2078C21.0762 16.1136 20.9461 16.1422 20.8267 16.1977C20.6962 16.2623 20.5827 16.3566 20.4954 16.4731C20.408 16.5896 20.3492 16.725 20.3238 16.8683L19.1349 24.4131V24.6341C19.1714 24.3938 19.2931 24.1746 19.4778 24.0165C19.6625 23.8584 19.8978 23.772 20.1409 23.7729H22.2366C26.3519 23.7729 29.5832 22.1039 30.5206 17.2646C30.5206 17.1198 30.5739 16.9826 30.5968 16.8455C30.3534 16.713 30.0983 16.6033 29.8347 16.5178L29.5756 16.4492Z" fill="#222D65"/>
<path d="M20.3238 16.8681C20.3487 16.7246 20.4072 16.5889 20.4947 16.4724C20.5821 16.3558 20.6959 16.2616 20.8268 16.1975C20.9461 16.142 21.0762 16.1134 21.2078 16.1137H26.8092C27.4292 16.1098 28.0484 16.1557 28.6611 16.2508L29.1336 16.3347L29.5756 16.449L29.789 16.5176C30.0526 16.6031 30.3077 16.7128 30.5511 16.8453C30.8331 15.0543 30.5511 13.835 29.5832 12.7376C28.5315 11.5182 26.6034 11 24.1419 11H16.9934C16.7504 10.9991 16.515 11.0855 16.3304 11.2436C16.1457 11.4017 16.024 11.6209 15.9875 11.8612L13.0001 30.7382C12.9856 30.8262 12.9905 30.9163 13.0146 31.0021C13.0387 31.0879 13.0813 31.1674 13.1394 31.235C13.1975 31.3025 13.2698 31.3565 13.351 31.3932C13.4323 31.4298 13.5206 31.4482 13.6097 31.447H18.0299L19.1349 24.4129L20.3238 16.8681Z" fill="#253B80"/>
</g>
<defs>
<clipPath id="clip0_254_11010">
<rect width="19.4944" height="23" fill="white" transform="translate(13 11)"/>
</clipPath>
</defs>
</svg>
