<svg viewBox="0 0 46 46" fill="none" xmlns="http://www.w3.org/2000/svg">
<circle cx="23" cy="23" r="22.5"/>
<g clip-path="url(#clip0_254_10997)">
<path d="M35.0001 16.2097C34.1172 16.5845 33.1681 16.8378 32.1722 16.9517C33.1887 16.3685 33.9696 15.445 34.3371 14.3445C33.3856 14.8847 32.3319 15.2768 31.2103 15.4881C30.3122 14.5722 29.0325 14 27.6163 14C24.8971 14 22.6923 16.1099 22.6923 18.7123C22.6923 19.0816 22.7359 19.4413 22.8199 19.7862C18.7276 19.5897 15.0995 17.7136 12.671 14.8625C12.2471 15.5585 12.0042 16.3679 12.0042 17.2316C12.0042 18.8665 12.8735 20.3089 14.1947 21.1539C13.3876 21.1295 12.6284 20.9175 11.9645 20.5645C11.964 20.5842 11.964 20.6039 11.964 20.6238C11.964 22.907 13.6612 24.8115 15.9138 25.2447C15.5006 25.3524 15.0656 25.4099 14.6166 25.4099C14.2993 25.4099 13.9909 25.3803 13.6902 25.3254C14.3168 27.1975 16.1352 28.56 18.2899 28.5979C16.6047 29.8619 14.4817 30.6153 12.1747 30.6153C11.7772 30.6153 11.3853 30.5929 11.0001 30.5494C13.1792 31.8865 15.7674 32.6667 18.548 32.6667C27.6048 32.6667 32.5576 25.4861 32.5576 19.2586C32.5576 19.0543 32.5528 18.8511 32.5433 18.6489C33.5052 17.9846 34.3399 17.1547 35 16.2097H35.0001Z" fill="#2AA9E0"/>
</g>
<defs>
<clipPath id="clip0_254_10997">
<rect width="24" height="18.6667" fill="white" transform="translate(11 14)"/>
</clipPath>
</defs>
</svg>
