<svg viewBox="0 0 46 46" fill="none" xmlns="http://www.w3.org/2000/svg">
<circle cx="23" cy="23" r="22.5"/>
<path d="M33 30C33 31.6568 31.6568 33 30 33H16C14.3432 33 13 31.6568 13 30V16C13 14.3432 14.3432 13 16 13H30C31.6568 13 33 14.3432 33 16V30Z" fill="#2DC100"/>
<path d="M26.3871 20.4577C24.7727 20.5417 23.3695 21.0313 22.2295 22.1369C21.0776 23.2537 20.552 24.6225 20.696 26.3193C20.0648 26.2409 19.4904 26.1553 18.9128 26.1065C18.7128 26.0897 18.476 26.1137 18.3072 26.2089C17.7464 26.5257 17.208 26.8833 16.5704 27.2817C16.6872 26.7521 16.7632 26.2889 16.8976 25.8433C16.996 25.5153 16.9504 25.3337 16.6488 25.1201C14.7112 23.7521 13.8944 21.7049 14.5056 19.5969C15.0704 17.6473 16.4592 16.4641 18.3464 15.8481C20.9224 15.0065 23.8167 15.8649 25.3831 17.9097C25.9479 18.6481 26.2951 19.4777 26.3871 20.4577ZM18.9576 19.8009C18.9728 19.4153 18.6384 19.0681 18.2416 19.0561C17.8352 19.0441 17.5016 19.3545 17.4896 19.7553C17.4776 20.1609 17.788 20.4865 18.1968 20.4969C18.6024 20.5073 18.9424 20.1961 18.9576 19.8009ZM22.8335 19.0561C22.4351 19.0633 22.0991 19.4025 22.1055 19.7897C22.1127 20.1905 22.4431 20.5049 22.8527 20.5001C23.2623 20.4953 23.5751 20.1777 23.5711 19.7681C23.5679 19.3665 23.2391 19.0489 22.8335 19.0561Z" fill="white"/>
<path d="M30.0137 30.522C29.5025 30.2948 29.0337 29.9532 28.5345 29.9012C28.0368 29.8492 27.5144 30.1364 26.9944 30.1892C25.4096 30.3516 23.9896 29.91 22.8192 28.8268C20.5928 26.7675 20.9112 23.6099 23.4864 21.9219C25.776 20.4219 29.1337 20.9219 30.7473 23.0035C32.1561 24.8195 31.9905 27.2299 30.2705 28.7556C29.7729 29.1972 29.5937 29.5604 29.9129 30.1428C29.9729 30.2508 29.9793 30.3868 30.0137 30.522ZM24.1952 24.8891C24.5208 24.8891 24.7888 24.6347 24.8008 24.3131C24.8036 24.2322 24.7902 24.1514 24.7613 24.0758C24.7324 24.0001 24.6886 23.9309 24.6325 23.8725C24.5764 23.814 24.5091 23.7674 24.4347 23.7353C24.3603 23.7033 24.2802 23.6865 24.1992 23.6859C23.8616 23.6843 23.5792 23.9739 23.5912 24.3091C23.6024 24.6299 23.872 24.8883 24.1952 24.8891ZM27.9456 23.6875C27.6296 23.6851 27.3616 23.9435 27.3488 24.2627C27.3352 24.6035 27.6 24.8843 27.9376 24.8851C28.264 24.8859 28.5224 24.6395 28.5336 24.3147C28.5472 23.9723 28.2816 23.6899 27.9456 23.6875Z" fill="white"/>
</svg>
