<svg viewBox="0 0 46 46" fill="none" xmlns="http://www.w3.org/2000/svg">
<circle cx="23" cy="23" r="22.5"/>
<g clip-path="url(#clip0_254_11023)">
<path d="M9 20.8906H10.6657L11.6359 23.3723L12.6184 20.8906H14.2402L11.798 26.7653H10.1659L10.8343 25.2088L9 20.8906Z" fill="#5F01D1"/>
<path d="M15.93 20.793C14.6784 20.793 13.886 21.9155 13.886 23.033C13.886 24.291 14.754 25.2884 15.9051 25.2884C16.7641 25.2884 17.0881 24.7648 17.0881 24.7648V25.1722H18.541V20.8912H17.0892V21.2804C17.0892 21.2804 16.728 20.793 15.93 20.793ZM16.238 22.1689C16.8153 22.1689 17.1133 22.6258 17.1133 23.0369C17.1133 23.481 16.7941 23.9166 16.238 23.9166C15.7768 23.9166 15.3602 23.54 15.3602 23.0559C15.3613 22.5654 15.6965 22.1683 16.2391 22.1683L16.238 22.1689Z" fill="#5F01D1"/>
<path d="M19.0425 25.1712V19H20.562V21.2943C20.562 21.2943 20.9229 20.792 21.6789 20.792C22.6029 20.792 23.1456 21.4811 23.1456 22.4656V25.1712H21.6369V22.836C21.6369 22.5028 21.4782 22.1808 21.1187 22.1808C20.7527 22.1808 20.562 22.5076 20.562 22.836V25.1712H19.0425Z" fill="#5F01D1"/>
<path d="M25.7365 20.793C24.3031 20.793 23.4497 21.883 23.4497 23.0506C23.4497 24.3795 24.4832 25.2881 25.7421 25.2881C26.962 25.2881 28.0297 24.4201 28.0297 23.073C28.0297 21.5982 26.9119 20.793 25.7365 20.793ZM25.7502 22.1809C26.2564 22.1809 26.6067 22.6026 26.6067 23.0523C26.6067 23.4359 26.2805 23.9088 25.7502 23.9088C25.2644 23.9088 24.8998 23.519 24.8998 23.0481C24.8998 22.5942 25.2031 22.1809 25.7502 22.1809Z" fill="#5F01D1"/>
<path d="M30.5614 20.793C29.1281 20.793 28.2747 21.883 28.2747 23.0506C28.2747 24.3795 29.3081 25.2881 30.5667 25.2881C31.787 25.2881 32.8546 24.4201 32.8546 23.073C32.856 21.5982 31.736 20.793 30.5614 20.793ZM30.5751 22.1809C31.0814 22.1809 31.4316 22.6026 31.4316 23.0523C31.4316 23.4359 31.1052 23.9088 30.5751 23.9088C30.0893 23.9088 29.7248 23.519 29.7248 23.0481C29.7248 22.5942 30.028 22.1809 30.5751 22.1809Z" fill="#5F01D1"/>
<path d="M34.0538 25.2624C34.6111 25.2624 35.0629 24.8106 35.0629 24.2533C35.0629 23.6959 34.6111 23.2441 34.0538 23.2441C33.4965 23.2441 33.0447 23.6959 33.0447 24.2533C33.0447 24.8106 33.4965 25.2624 34.0538 25.2624Z" fill="#5F01D1"/>
<path d="M35.3945 22.8732H33.5779L35.1901 19H37L35.3945 22.8732Z" fill="#5F01D1"/>
</g>
<defs>
<clipPath id="clip0_254_11023">
<rect width="28" height="7.76496" fill="white" transform="translate(9 19)"/>
</clipPath>
</defs>
</svg>
