<svg width="187" height="30" xmlns="http://www.w3.org/2000/svg" xml:space="preserve" style="fill-rule:evenodd;clip-rule:evenodd;stroke-linejoin:round;stroke-miterlimit:2"><path d="M25 30H4.951C2.235 30 0 27.765 0 25.049V4.951C0 2.235 2.235 0 4.951 0h20.098C27.765 0 30 2.235 30 4.951V25.05c0 2.716-2.234 4.95-4.95 4.95H25Z" style="fill:#00a7a7;fill-rule:nonzero"/><path d="m8 14 1.7 3.3-1-.2-.1 3.1-1.6-.5v-3l-1-.3L8 14Zm2.4-.2 1.3.4-.5 6.8 2 .8.9-7.1 1.4.4-2.3-4.2-2.8 2.9Zm6.4-3.5 2.1.6-2.6 12 2.8 1.1 3-12.5 1.9.4L21.5 6l-4.7 4.3Z" style="fill:#fff;fill-rule:nonzero"/><path d="M48.2 9.4a4.878 4.878 0 0 0-2.5-.6h-5.2v13.1h2.8v-4.2h2.3a5.26 5.26 0 0 0 2.6-.6 3.54 3.54 0 0 0 1.6-1.6 4.713 4.713 0 0 0 0-4.6 3.863 3.863 0 0 0-1.6-1.5Zm-1 5a2.051 2.051 0 0 1-.8.8c-.398.216-.847.32-1.3.3h-1.9V11h1.9c.452-.02.902.084 1.3.3.337.186.614.464.8.8.204.33.308.712.3 1.1.008.42-.096.834-.3 1.2Zm11.7-1.8a5.26 5.26 0 0 0-2.6-.6 5.535 5.535 0 0 0-2.6.6 4.237 4.237 0 0 0-1.7 1.8 5.667 5.667 0 0 0-.6 2.7c-.027.904.18 1.8.6 2.6a3.721 3.721 0 0 0 1.7 1.8c1.64.8 3.56.8 5.2 0a4.237 4.237 0 0 0 1.7-1.8 5.535 5.535 0 0 0 .6-2.6 5.95 5.95 0 0 0-.6-2.7 4.237 4.237 0 0 0-1.7-1.8Zm-.7 5.9c-.174.402-.41.773-.7 1.1a1.499 1.499 0 0 1-1.1.4 1.37 1.37 0 0 1-1.1-.4 2.967 2.967 0 0 1-.7-1.1 3.898 3.898 0 0 1-.2-1.5c.01-.506.078-1.009.2-1.5.174-.401.41-.773.7-1.1a1.499 1.499 0 0 1 1.1-.4 1.37 1.37 0 0 1 1.1.4c.312.31.55.686.7 1.1.17.48.239.992.2 1.5a6.836 6.836 0 0 1-.2 1.5Zm12.3-1.4c.487.425.746 1.055.7 1.7a2.71 2.71 0 0 1-.6 1.7 3.273 3.273 0 0 1-1.5 1.1c-.74.256-1.517.39-2.3.4a5.683 5.683 0 0 1-3.1-.8 2.967 2.967 0 0 1-1.3-2.2l2.7-.1c.077.366.292.688.6.9.749.4 1.651.4 2.4 0a.755.755 0 0 0 .4-.7.713.713 0 0 0-.3-.6c-.26-.21-.57-.349-.9-.4l-1.7-.3a3.452 3.452 0 0 1-2.1-1 2.41 2.41 0 0 1-.7-1.8 2.767 2.767 0 0 1 .5-1.6 2.96 2.96 0 0 1 1.5-1.1 7.202 7.202 0 0 1 2.2-.4 4.987 4.987 0 0 1 2.9.8 2.847 2.847 0 0 1 1.2 2.1l-2.6.2a.862.862 0 0 0-.3-.6.917.917 0 0 0-.6-.4 1.888 1.888 0 0 0-.8-.2 2.013 2.013 0 0 0-1.1.3.758.758 0 0 0-.31 1.03.864.864 0 0 0 .21.27 1.88 1.88 0 0 0 1 .4l1.8.4a4.578 4.578 0 0 1 2.1.9Zm7.4 2.6.4 2a3.84 3.84 0 0 0-.6.2 2.489 2.489 0 0 1-.9.1 4.299 4.299 0 0 1-1.7-.3 2.01 2.01 0 0 1-1.1-.9 3.773 3.773 0 0 1-.4-1.6v-5.1h-1.3v-2h1.3V9.7h2.7v2.4h1.8v2h-1.8v4.8c-.025.206.01.414.1.6l.3.3a.75.75 0 0 0 .5.1h.4c.1 0 .2-.2.3-.2Zm10-10.9-4.5 13.1h3l1-3h4.7l1 3h3L91.5 8.8h-3.6Zm.2 7.9 1.6-5h.1l1.6 5h-3.3Zm12.4-5.3v.7h2v2h-2v7.8h-2.7v-7.8h-1.4v-2h1.4v-.7a3.426 3.426 0 0 1 .4-1.8 3.842 3.842 0 0 1 1.1-1.1 4.258 4.258 0 0 1 1.7-.4c.37-.021.74.013 1.1.1.3.1.6.1.8.2l-.5 2c-.1 0-.2-.1-.4-.1h-.5c-.4 0-.7.1-.8.3a1.888 1.888 0 0 0-.2.8Zm7.2 0v.7h2v2h-2v7.8H105v-7.8h-1.4v-2h1.4v-.7a3.426 3.426 0 0 1 .4-1.8 3.842 3.842 0 0 1 1.1-1.1 4.258 4.258 0 0 1 1.7-.4c.37-.021.74.013 1.1.1.3.1.6.1.8.2l-.5 2c-.1 0-.2-.1-.4-.1h-.5c-.4 0-.7.1-.8.3a1.888 1.888 0 0 0-.2.8Zm6.1-3a1.406 1.406 0 0 1-.212 2.17 1.396 1.396 0 0 1-.788.23 1.161 1.161 0 0 1-1-.4 1.406 1.406 0 0 1 .212-2.17c.234-.154.508-.234.788-.23.367.027.716.167 1 .4Zm-2.4 3.7h2.7v9.8h-2.7v-9.8Zm5-3.3h2.7v13.1h-2.7V8.8Zm5 3.3h2.7v9.8h-2.7v-9.8Zm2.4-3.7a1.406 1.406 0 0 1-.212 2.17 1.396 1.396 0 0 1-.788.23 1.161 1.161 0 0 1-1-.4 1.406 1.406 0 0 1 .212-2.17c.234-.154.508-.234.788-.23.362.045.707.183 1 .4Zm9.5 4.3a3.102 3.102 0 0 0-1.3-.6 7.767 7.767 0 0 0-1.6-.2 4.637 4.637 0 0 0-2.1.4 3.954 3.954 0 0 0-1.5 1 4.331 4.331 0 0 0-.8 1.5l2.5.2c.106-.325.317-.607.6-.8.362-.216.779-.32 1.2-.3.389-.022.776.083 1.1.3.287.205.44.55.4.9a.767.767 0 0 1-.2.5c-.244.138-.52.207-.8.2a9.311 9.311 0 0 0-1.4.2 6.82 6.82 0 0 0-1.4.2 6.12 6.12 0 0 0-1.2.5 2.36 2.36 0 0 0-.8.9 2.9 2.9 0 0 0-.3 1.4 2.73 2.73 0 0 0 .4 1.6c.302.436.717.781 1.2 1a4.299 4.299 0 0 0 1.7.3c.44-.01.877-.077 1.3-.2a3.13 3.13 0 0 0 1-.5c.283-.193.494-.474.6-.8h.1v1.4h2.6v-6.6a3.342 3.342 0 0 0-.3-1.5 4.74 4.74 0 0 0-1-1Zm-1.4 5.7c.008.326-.098.644-.3.9a1.342 1.342 0 0 1-.7.6c-.34.171-.722.24-1.1.2a1.492 1.492 0 0 1-1-.3 1.234 1.234 0 0 1-.4-.8.848.848 0 0 1 .2-.6.92.92 0 0 1 .6-.4c.253-.113.524-.18.8-.2.172.007.344-.027.5-.1.168-.023.335-.057.5-.1.2 0 .3-.1.5-.1.1 0 .3-.1.3-.2v1.1h.1Zm9.7 1.3.4 2a3.84 3.84 0 0 0-.6.2 2.489 2.489 0 0 1-.9.1 4.299 4.299 0 0 1-1.7-.3 2.01 2.01 0 0 1-1.1-.9 3.773 3.773 0 0 1-.4-1.6v-5.1H136v-2h1.3V9.7h2.7v2.4h1.8v2H140v4.8c-.025.206.01.414.1.6l.3.3a.75.75 0 0 0 .5.1h.4c.1 0 .2-.2.3-.2Zm9.3-6.5a3.755 3.755 0 0 0-1.5-.9 5.654 5.654 0 0 0-1.8-.3 4.88 4.88 0 0 0-2.5.6 4.237 4.237 0 0 0-1.7 1.8 5.667 5.667 0 0 0-.6 2.7 5.95 5.95 0 0 0 .6 2.7 4.902 4.902 0 0 0 1.7 1.8 5.26 5.26 0 0 0 2.6.6 4.637 4.637 0 0 0 2.1-.4 3.954 3.954 0 0 0 1.5-1c.421-.441.699-.998.8-1.6l-2.5-.2c-.1.2-.2.5-.4.6-.2.1-.4.3-.6.4a2.21 2.21 0 0 1-.8.1 2.375 2.375 0 0 1-1.2-.3 3.044 3.044 0 0 1-.8-.8 2.756 2.756 0 0 1-.3-1.3h6.7V17a5.093 5.093 0 0 0-.4-2.2 2.346 2.346 0 0 0-.9-1.6Zm-5.3 2.8a1.69 1.69 0 0 1 .3-1 2.71 2.71 0 0 1 .7-.8c.33-.204.712-.308 1.1-.3a1.69 1.69 0 0 1 1 .3c.281.18.519.42.7.7.19.3.294.646.3 1h-4.1v.1ZM166 9.4a4.88 4.88 0 0 0-2.5-.6h-5.2v13.1h2.8v-4.2h2.3a5.26 5.26 0 0 0 2.6-.6 3.54 3.54 0 0 0 1.6-1.6 4.719 4.719 0 0 0 0-4.6 3.863 3.863 0 0 0-1.6-1.5Zm-1 5a2.038 2.038 0 0 1-.8.8c-.398.216-.847.32-1.3.3H161V11h1.9c.453-.02.902.084 1.3.3.337.186.614.464.8.8.204.33.308.712.3 1.1.008.42-.096.834-.3 1.2Zm10.3-2.5c.2 0 .3 0 .4.1v2.4a4.513 4.513 0 0 0-.5-.1h-.6a2.013 2.013 0 0 0-1.1.3 1.58 1.58 0 0 0-.7.7c-.204.33-.308.712-.3 1.1V22h-2.7v-9.8h2.6v1.7h.1a2.848 2.848 0 0 1 .9-1.4 2.46 2.46 0 0 1 1.5-.5c.1-.1.2-.1.4-.1Zm10.4 2.4a3.721 3.721 0 0 0-1.7-1.8 5.26 5.26 0 0 0-2.6-.6 5.535 5.535 0 0 0-2.6.6 4.237 4.237 0 0 0-1.7 1.8 5.667 5.667 0 0 0-.6 2.7c-.027.904.18 1.8.6 2.6a3.712 3.712 0 0 0 1.7 1.8 5.94 5.94 0 0 0 5.2 0 4.237 4.237 0 0 0 1.7-1.8 5.535 5.535 0 0 0 .6-2.6 5.95 5.95 0 0 0-.6-2.7Zm-2.4 4.2c-.174.401-.41.773-.7 1.1a1.495 1.495 0 0 1-1.1.4 1.363 1.363 0 0 1-1.1-.4 2.967 2.967 0 0 1-.7-1.1 3.898 3.898 0 0 1-.2-1.5 6.836 6.836 0 0 1 .2-1.5c.174-.401.41-.773.7-1.1a1.499 1.499 0 0 1 1.1-.4 1.37 1.37 0 0 1 1.1.4c.312.31.551.686.7 1.1a5.718 5.718 0 0 1 0 3Z" style="fill:#00a7a7;fill-rule:nonzero"/></svg>
