<svg width="152" height="30" xmlns="http://www.w3.org/2000/svg" xml:space="preserve" style="fill-rule:evenodd;clip-rule:evenodd;stroke-linejoin:round;stroke-miterlimit:2"><clipPath id="a"><path d="M0 0h152v30H0z"/></clipPath><g clip-path="url(#a)"><path d="M11.847 0c6.404 0 11.597 5.192 11.597 11.597 0 6.405-5.194 11.596-11.597 11.596S.25 18.001.25 11.597C.25 5.191 5.443 0 11.847 0Zm12.916 25.903c-.795.271-1.575.464-2.342.573-.748.107-1.502.162-2.258.164a17.916 17.916 0 0 1-4.19-.492 98.22 98.22 0 0 1-4.064-1.065 117.341 117.341 0 0 0-4.004-1.064 16.82 16.82 0 0 0-4.046-.492c-.575 0-1.163.041-1.766.123l-1.231.82a40.55 40.55 0 0 1 5.112 1.64c1.574.627 3.06 1.227 4.456 1.801a62.858 62.858 0 0 0 3.942 1.476c1.232.41 2.409.613 3.532.613a6.738 6.738 0 0 0 3.696-1.003 22.492 22.492 0 0 0 3.368-2.52l-.205-.574Z" style="fill:#00a7a7;fill-rule:nonzero"/><path d="M11.847 23.195a11.577 11.577 0 0 1-8.908-4.178L20.691 4.105a11.547 11.547 0 0 1 2.753 7.492c0 6.406-5.194 11.598-11.597 11.598Z" style="fill:#00a7a7;fill-rule:nonzero"/><path d="M14.39.281c5.181 1.16 9.054 5.783 9.054 11.313 0 6.404-5.193 11.597-11.597 11.597-1.145 0-2.248-.169-3.293-.478L14.39.281Z" style="fill:#00a7a7;fill-rule:nonzero"/><path d="m10.678 23.127-.294-.031a12.26 12.26 0 0 1-1.078-.186c-.083-.018-.163-.043-.245-.064-.17-.04-.337-.096-.504-.145l2.798-10.756 9.332-7.84.031.036c.18.214.35.435.514.661.028.04.058.076.087.116.163.231.316.47.463.714l.074.12c.142.241.272.49.396.742.024.048.05.094.072.142.117.245.221.497.321.752.022.06.05.116.072.176.091.245.168.495.242.748.023.072.05.144.07.218.066.243.118.492.17.741.017.085.041.17.055.256.046.25.075.507.105.762.01.088.026.175.034.263a11.58 11.58 0 0 1-4.173 9.994 11.557 11.557 0 0 1-7.376 2.646c-.394 0-.782-.026-1.166-.066v.001Zm30.67-7.136c0-2.561.562-4.533 1.69-5.917C44.163 8.691 45.774 8 47.867 8c1.097 0 2.056.19 2.875.571.82.381 1.5.922 2.042 1.624.541.703.945 1.545 1.207 2.525.264.98.396 2.07.396 3.271 0 2.562-.567 4.534-1.7 5.917-1.136 1.383-2.742 2.074-4.82 2.074-1.113 0-2.079-.19-2.898-.57a5.327 5.327 0 0 1-2.03-1.625c-.536-.702-.934-1.544-1.198-2.524-.263-.981-.395-2.072-.395-3.272h.002Zm3.16 0c0 .776.066 1.49.198 2.141s.333 1.211.604 1.68c.27.469.618.834 1.043 1.098.424.264.93.396 1.514.396 1.07 0 1.896-.418 2.481-1.252.586-.834.88-2.188.88-4.062 0-.746-.064-1.441-.188-2.086-.125-.644-.318-1.207-.582-1.69a3.03 3.03 0 0 0-1.032-1.13c-.425-.271-.943-.406-1.559-.406-1.068 0-1.895.428-2.48 1.284-.586.855-.879 2.198-.879 4.027Zm11.417 12.116a8.025 8.025 0 0 1-2.13.288c-.746 0-1.47-.077-2.174-.23a44.54 44.54 0 0 1-2.04-.495c-.636-.169-1.272-.333-1.91-.493a7.203 7.203 0 0 0-1.735-.23c-.352 0-.689.044-1.01.132v-2.591a6.12 6.12 0 0 1 1.273-.131c.615 0 1.226.071 1.833.216.607.144 1.226.299 1.855.464.63.166 1.273.321 1.933.465a9.672 9.672 0 0 0 3.073.161c.337-.037.68-.099 1.032-.187v2.631Zm3.293-15.408v6.235c0 .893.105 1.535.318 1.932.212.396.625.593 1.24.593.542 0 .992-.16 1.35-.483a2.95 2.95 0 0 0 .802-1.186V12.7h2.854v7.64c0 .6.029 1.188.087 1.767.059.58.147 1.102.264 1.57h-2.151l-.505-1.625h-.088a4.096 4.096 0 0 1-1.405 1.383c-.6.366-1.31.55-2.13.55a4.688 4.688 0 0 1-1.492-.22 2.436 2.436 0 0 1-1.098-.726c-.293-.336-.516-.79-.67-1.36-.153-.57-.23-1.288-.23-2.15V12.7h2.854v-.001Zm9.001.636c.585-.264 1.28-.472 2.086-.626a13.52 13.52 0 0 1 2.524-.229c.761 0 1.398.091 1.91.274.512.184.918.443 1.218.779.3.337.513.74.637 1.208.124.469.186.995.186 1.58 0 .644-.02 1.291-.065 1.942-.043.64-.069 1.28-.077 1.921-.007.631.012 1.24.055 1.833.044.593.154 1.154.331 1.68h-2.329l-.46-1.514h-.11c-.294.453-.7.845-1.219 1.175-.52.33-1.189.492-2.008.492-.513 0-.974-.076-1.384-.23a2.977 2.977 0 0 1-1.054-.658 3 3 0 0 1-.68-1.01 3.376 3.376 0 0 1-.242-1.306c0-.674.15-1.24.45-1.701.3-.462.732-.835 1.295-1.12.564-.285 1.237-.482 2.02-.593.87-.113 1.748-.147 2.624-.1.102-.818.044-1.408-.176-1.767-.22-.357-.71-.537-1.47-.537-.572 0-1.175.059-1.812.175-.637.117-1.16.27-1.569.461l-.68-2.129h-.001Zm3.622 8.168c.571 0 1.024-.128 1.361-.386.337-.256.585-.53.746-.823v-1.427a7.791 7.791 0 0 0-1.305-.02c-.417.03-.787.095-1.11.197-.32.104-.578.248-.767.439a.977.977 0 0 0-.286.723c0 .41.121.73.362.956.242.228.574.34 1 .34l-.001.001Zm10.274-1.515c0 .513.064.886.197 1.119.132.235.344.352.637.352.176 0 .348-.015.518-.044.215-.044.424-.11.625-.197l.307 2.239c-.234.117-.594.233-1.076.35-.482.119-.98.177-1.492.177-.835 0-1.472-.194-1.91-.581-.439-.388-.658-1.028-.658-1.922V8.309h2.854v11.679h-.002Zm3.337-10.386c0-.424.157-.786.472-1.087.314-.3.75-.449 1.307-.449.556 0 1.006.15 1.35.45.344.3.518.662.518 1.086 0 .425-.174.78-.518 1.065-.344.285-.794.428-1.35.428-.557 0-.992-.143-1.307-.428a1.378 1.378 0 0 1-.472-1.065Zm.417 3.095h2.854v10.978H85.87V12.697h-.001Zm4.523.002h1.515v-2.063l2.854-.812V12.7h2.68v2.415h-2.68v4.215c0 .762.077 1.307.231 1.636.152.33.441.494.866.494.293 0 .546-.03.757-.088.244-.07.482-.158.713-.264l.506 2.195c-.395.19-.856.352-1.383.483a6.613 6.613 0 0 1-1.603.197c-1.01 0-1.753-.26-2.228-.779-.477-.519-.715-1.372-.715-2.558v-5.532H90.39V12.7h.002v-.001Z" style="fill:#00a7a7;fill-rule:nonzero"/><path d="m102.686 18.868.396 1.713h.131l.285-1.734 1.668-6.147h2.942l-3.337 9.901c-.277.82-.545 1.57-.801 2.25-.258.681-.538 1.27-.846 1.768-.308.497-.647.882-1.021 1.152-.374.271-.815.406-1.329.406-.761 0-1.368-.124-1.82-.373l.525-2.283c.221.088.44.132.659.132.336 0 .661-.143.978-.429.313-.285.551-.8.713-1.547L97.241 12.7h3.424l2.021 6.17v-.002Zm19.67-10.56h2.854v9.924c0 .996-.131 1.853-.396 2.569-.263.717-.629 1.31-1.099 1.777a4.22 4.22 0 0 1-1.711 1.032 7.121 7.121 0 0 1-2.217.329c-3.895 0-5.841-1.778-5.841-5.335V8.309h3.009v9.704c0 .6.053 1.109.164 1.524.109.417.281.755.516 1.01.235.257.527.44.878.55.399.116.813.172 1.229.165.922 0 1.588-.256 1.998-.77.409-.512.614-1.338.614-2.48V8.31h.002v-.002Zm12.076 15.369V17.44c0-.893-.128-1.536-.384-1.932-.257-.396-.692-.593-1.306-.593-.543 0-1 .157-1.373.472a2.61 2.61 0 0 0-.802 1.175v7.113h-2.854V12.698h2.262l.329 1.449h.088a4.723 4.723 0 0 1 1.34-1.23c.556-.351 1.272-.526 2.151-.526.541 0 1.025.074 1.449.22.424.147.783.388 1.076.725.293.337.512.794.658 1.372.145.578.219 1.292.219 2.14v6.829h-2.853Zm5.071-14.075c0-.424.157-.786.472-1.087.314-.3.75-.449 1.307-.449.556 0 1.006.15 1.35.45.344.3.516.662.516 1.086 0 .425-.172.78-.516 1.065-.344.285-.794.428-1.35.428-.557 0-.992-.143-1.307-.428a1.378 1.378 0 0 1-.472-1.065Zm.417 3.095h2.854v10.978h-2.854V12.697Zm4.522.002h1.515v-2.063l2.854-.812V12.7h2.679v2.415h-2.679v4.215c0 .762.077 1.307.231 1.636.152.33.441.494.866.494.292 0 .546-.03.757-.088.244-.07.482-.158.713-.264l.506 2.195c-.395.19-.855.352-1.383.483a6.613 6.613 0 0 1-1.603.197c-1.01 0-1.753-.26-2.228-.779-.477-.519-.715-1.372-.715-2.558v-5.532h-1.515V12.7h.002v-.001Z" style="fill:#00a7a7;fill-rule:nonzero"/></g></svg>
